<?xml version="1.0" encoding="utf-8"?>
<!-- Generator: Adobe Illustrator 28.0.0, SVG Export Plug-In . SVG Version: 6.00 Build 0)  -->
<svg version="1.1" id="Layer_1" xmlns="http://www.w3.org/2000/svg" xmlns:xlink="http://www.w3.org/1999/xlink" x="0px" y="0px"
	 viewBox="0 0 145.94206 250" style="enable-background:new 0 0 145.94206 250;" xml:space="preserve">
<style type="text/css">
	.st0{fill:#010101;}
</style>
<path id="Path_01" class="st0" d="M70.76761,32.06916c-3.14394,0-5.70156-2.46877-5.70156-5.50365s2.55762-5.504,5.70156-5.504
	c3.14393,0,5.70156,2.46912,5.70156,5.504S73.91154,32.06916,70.76761,32.06916z M70.76761,22.51168
	c-2.34414,0-4.25139,1.81838-4.25139,4.05383c0,2.23509,1.90725,4.05347,4.25139,4.05347s4.25139-1.81838,4.25139-4.05347
	C75.019,24.33006,73.11175,22.51168,70.76761,22.51168z M85.47256,33.35081c0.39936-0.02301,0.70526-0.36573,0.68189-0.76545
	l-0.40078-6.99666c-0.02125-0.37529-0.32572-0.67163-0.70101-0.68331c-2.16181-0.06656-3.92496-1.74261-4.10056-3.89876
	l-0.30873-3.78015c-0.03257-0.39901-0.38237-0.69393-0.78173-0.66348c-0.39901,0.03257-0.69606,0.38237-0.66348,0.78173
	l0.30837,3.7798c0.21738,2.66774,2.24571,4.78777,4.83521,5.1712l0.36538,6.37248c0.02195,0.38591,0.3413,0.68367,0.72296,0.68367
	C85.44424,33.35187,85.4584,33.35152,85.47256,33.35081z M143.35634,243.3727c0.69604-3.17589,0.13051-6.41699-1.5952-9.19409
	c-0.50032-0.81209-1.08763-1.5517-1.74748-2.2115c0.11603-0.13055,0.18126-75.96735,0.18126-75.96735
	c0-4.59708-1.79094-8.92583-5.04657-12.18146c-1.50093-1.49367-3.22664-2.69008-5.10463-3.53116v-0.02177L128.9706,130.89
	c8.16449-1.31967,14.00868-8.80983,13.29811-17.06132l-3.3064-38.32082c-0.89189-10.33248-9.04912-18.38819-19.38885-19.15678
	l-14.34219-1.03687l-9.4479-14.38574c-0.21026-0.31904-0.63082-0.42056-0.96433-0.22478l-2.03749,1.1819l-2.00125-3.60366
	c1.99399-0.36254,5.85872-1.762,5.85872-7.07685c0-1.25443-0.26833-2.28404-0.81214-3.07436
	c1.57347-1.58073,2.46531-3.7197,2.48708-5.96024l0.02174-2.98735c0.02177-2.31303-0.86286-4.48829-2.48705-6.12699
	c-1.47195-1.48642-3.38615-2.37105-5.45267-2.52329c-0.62357-4.2925-4.35778-7.43214-8.75902-7.29437l-11.63042,0.4133
	c-4.58981,0.16676-9.18684-0.82661-13.30532-2.84959l-1.47921-0.72509c-0.31904-0.15954-0.70331-0.06528-0.91357,0.22478
	L51.9809,3.57926c-1.77647,2.48704-1.7112,5.78622,0.15228,8.20073l0.55829,0.72509l-0.39153,0.75412
	c-1.52266,2.90035-0.77585,6.50401,1.77647,8.56327l0.8991,0.72509c0.31178,0.25376,0.76859,0.203,1.02235-0.10878
	c0.24655-0.31178,0.19579-0.76859-0.11599-1.01509l-0.8991-0.72509c-2.01576-1.63144-2.60308-4.47382-1.39941-6.76507
	l0.60905-1.16738c0.13051-0.24655,0.10152-0.55107-0.06524-0.77585l-0.84113-1.09489
	c-1.4719-1.90698-1.52266-4.51006-0.12325-6.47502l1.97222-2.76984l0.92087,0.44955
	c4.33601,2.13176,9.17958,3.16863,14.00143,3.00187l11.63037-0.4133c3.86472-0.15228,7.06239,2.76258,7.33792,6.59827
	c0.02173,0.37706,0.34077,0.67432,0.71783,0.67432c1.92146,0,3.72691,0.75412,5.07561,2.11728
	c1.34865,1.36317,2.08825,3.16863,2.06647,5.09008l-0.02173,2.98735c-0.02177,1.86348-0.75412,3.62543-2.052,4.9451
	c-2.55958-1.7547-6.83756-0.18853-7.01884-0.11599c-0.3698,0.13777-0.56559,0.55829-0.42056,0.92809
	c0.13776,0.37706,0.55833,0.56559,0.92813,0.42782c1.04408-0.39153,4.10397-1.15291,5.71365-0.03625
	c0.05801,0.0435,0.11604,0.07975,0.16679,0.13777c0.10874,0.07975,0.21027,0.18127,0.29001,0.29001
	c0.48584,0.56559,0.71787,1.38494,0.71787,2.47257c0,2.83507-1.33418,4.27073-2.69734,5.00307s-2.75532,0.75412-2.87136,0.75412
	c-0.26102,0-0.49305,0.13777-0.62357,0.36254c-0.13051,0.21752-0.13776,0.49305-0.01451,0.71783l2.5378,4.56804L74.11056,52.6749
	l-1.53719-2.58131l4.27798-0.53656c0.39158-0.05076,0.67433-0.4133,0.62357-0.81209
	c-0.05071-0.39883-0.41326-0.67432-0.80483-0.63082l-10.04243,1.2689c-2.4508,0.31178-4.93058-0.41331-6.81583-2.00851
	c-1.88521-1.58794-3.0236-3.91549-3.11786-6.37349l-0.24655-7.59894c0.48584,0.13777,1.00062,0.2103,1.53718,0.2103
	c1.89251,0,3.57472-0.89914,4.61159-2.26952l0.0435,4.11123c0,0.39153,0.3263,0.71783,0.72509,0.71783h0.00726
	c0.39879-0.00726,0.71783-0.33355,0.71783-0.7396l-0.13051-11.70287c-0.00726-0.39883-0.3263-0.71787-0.72509-0.71787H63.227
	c-0.39879,0.00726-0.72509,0.33356-0.71783,0.73234l0.01447,1.02966c-1.05134-1.31966-2.69004-2.16805-4.53905-2.16805
	c-3.14685,0-5.69917,2.46531-5.69917,5.50343c0,1.965,1.07316,3.69793,2.69009,4.6623l0.26828,8.28048
	c0.11599,2.87136,1.43566,5.58318,3.63269,7.43214c1.85622,1.57347,4.22001,2.42181,6.6273,2.42181
	c0.43504,0,0.87007-0.02899,1.30515-0.08701l4.22722-0.5293c0.00726,0.05072,0.02904,0.10148,0.05802,0.15224l1.42844,2.40729
	l-4.59707-0.34077c-9.10709-0.68158-17.26431,5.86592-18.57672,14.90052c-3.05984,21.02751-3.94447,26.90796-4.16199,28.30011
	H13.97912c-1.02965,0-1.95774,0.52934-2.48709,1.41393c-0.52204,0.88463-0.54381,1.95049-0.05072,2.85684l13.36334,24.52969
	c-1.67495,0.9426-2.66831,2.80608-2.46531,4.75657l0.07249,0.73959c0.01451,0.09422,0.0435,0.18849,0.08705,0.2755
	c0.26102,0.46407,0.60179,0.87012,1.00784,1.18915c-0.12325,0.48581-0.05797,1.00063,0.18853,1.45018l0.14503,0.27554
	c0.29727,0.53654,0.71783,1.00787,1.23266,1.37042c-0.09426,0.46407-0.02177,0.9426,0.21026,1.36316l0.15228,0.28279
	c0.25376,0.46404,0.60179,0.87007,1.01509,1.19638c-0.02899,0.39157,0.05076,0.79036,0.23929,1.14565l0.15228,0.27553
	c0.71783,1.30515,2.08825,2.10274,3.56016,2.10274c0.10152,0,0.21026,0,0.31904-0.00722l3.3934-0.26833
	c-8.51977,2.27678-14.83524,10.10049-14.8425,19.27281l-0.02903,71.85612c-1.3849,0.10873-2.67557,0.68158-3.71244,1.63866
	c-1.21088,1.1384-1.90698,2.67557-1.95049,4.34331l-0.07249,2.79883c-5.67018,0.30452-9.64364,1.73296-11.82616,4.24899
	c-1.9215,2.21877-1.67495,4.45204-1.66769,4.54631C0.0647,249.72446,0.36923,250,0.73903,250c0,0,0.00726,0,0.01447,0
	l47.95724-0.89909c0.39879-0.01453,0.71057-0.33356,0.71057-0.73235l-0.19574-77.67854v-0.44955h0.0435l56.46975-0.07979v78.56317
	c0,0.10152,0.02174,0.20299,0.06524,0.29726c0.05076,0.10878,0.11604,0.19579,0.20304,0.26106
	c0.02899,0.02899,0.05802,0.05072,0.08701,0.06523c0.03625,0.02177,0.08701,0.04352,0.13052,0.05803
	c0.03624,0.01447,0.07249,0.02899,0.11599,0.02899c0.03629,0.00725,0.07254,0.01451,0.11604,0.01451h0.00726l38.74863,0.23929
	c0,0,0,0,0.00726,0c0.203,0,0.39879-0.08705,0.53654-0.23929c0.14499-0.15955,0.203-0.3698,0.18127-0.57285
	C145.91586,248.72385,145.55333,246.16426,143.35634,243.3727z M53.73559,28.10895c0-2.23328,1.90698-4.05325,4.249-4.05325
	c2.34206,0,4.24904,1.81997,4.24904,4.05325s-1.90698,4.05326-4.24904,4.05326
	C55.64257,32.16221,53.73559,30.34223,53.73559,28.10895z M50.78448,67.61166c1.20367-8.28048,8.68657-14.27696,17.03233-13.66061
	l3.62543,0.26828l-0.5366,0.31178c-0.34077,0.19579-0.46402,0.63082-0.27554,0.97163l3.98077,7.34509
	c0.18848,0.34807,0.63082,0.47858,0.98611,0.29005c0.34802-0.18853,0.47853-0.63082,0.29001-0.98611l-3.64716-6.72157
	L94.94954,42.2989l9.26659,14.11021c0.1233,0.18848,0.32629,0.31178,0.55107,0.32625l14.69753,1.05864
	c9.62912,0.71783,17.22081,8.2225,18.05463,17.83711l3.3064,38.32086c0.64534,7.50463-4.66951,14.32047-12.10892,15.51683
	l-37.69724,5.97475l-3.2339-19.4251l32.04158-5.0321c0.38427-0.06524,0.65255-0.41331,0.60184-0.80484l-3.21939-28.22036
	c-0.0435-0.39883-0.39883-0.68884-0.79762-0.63808c-0.39879,0.04351-0.68884,0.40605-0.63808,0.80484l3.13963,27.53152
	l-43.21515,6.79411l-10.00623-18.3592l-1.78369-15.12534c-0.01451-0.16676-0.09426-0.31904-0.21752-0.43504l-6.59106-6.34451
	c-0.28279-0.27554-0.74686-0.26828-1.02235,0.02177c-0.27554,0.28275-0.26832,0.74681,0.02173,1.02235l6.40253,6.16323
	l1.51541,12.90654c-0.65255-0.37702-1.40667-0.59458-2.19699-0.59458h-15.1688C46.91254,94.0556,47.7754,88.32014,50.78448,67.61166
	z M79.51968,137.73482l-10.49199-2.34203l-0.24654-0.05801H68.7449l-0.63082-0.14502
	c-0.67432-0.15228-1.12388-0.8121-1.02235-1.50095c0.0435-0.23924,0.14498-0.46407,0.30453-0.64532l10.89077,2.43631
	c0.05076,0.00726,0.10152,0.01448,0.15954,0.01448c0.3263,0,0.63083-0.23199,0.70332-0.56555
	c0.08705-0.39153-0.1595-0.7831-0.55103-0.8701l-11.39839-2.54506c-0.58732-0.13052-0.84108-0.33351-0.9426-0.53656h12.48598
	c1.02966,0,1.95774-0.5293,2.48708-1.41393c0.5293-0.8846,0.54382-1.95775,0.05072-2.86411l-2.34927-4.31423v-0.00726
	c0-0.11604-0.02899-0.23929-0.08701-0.35529l-2.26226-4.24178l9.77415-1.53718l3.27014,19.67161l-6.11247,3.82121
	c-1.62418,1.02235-3.55289,1.34866-5.43089,0.93535l-8.20073-1.83444c-0.68158-0.15228-1.13113-0.81209-1.02239-1.50093
	c0.02177-0.16681,0.07979-0.31905,0.15954-0.45682l10.1802,2.27679c0.05802,0.0072,0.10879,0.01447,0.15955,0.01447
	c0.33351,0,0.63082-0.23204,0.71057-0.56555C80.15775,138.21335,79.91125,137.82182,79.51968,137.73482z M12.71743,99.2907
	c-0.2465-0.45681-0.23925-0.98611,0.02177-1.4284c0.26828-0.44229,0.72509-0.70336,1.23991-0.70336h47.84121
	c1.04412,0,2.0085,0.56559,2.51603,1.47921c0.00726,0.01447,0.01452,0.02898,0.02177,0.0435l15.65459,28.71342
	c0.24655,0.44955,0.23203,0.98611-0.02898,1.42844c-0.26102,0.44229-0.72509,0.70331-1.23991,0.70331H30.90988
	c-1.05864,0-2.03024-0.5728-2.53055-1.50093L12.71743,99.2907z M65.77927,134.77644
	c-0.12325,0.02904-0.23925,0.09427-0.33351,0.19579l-3.3499,3.5094c-0.20304,0.21031-0.25381,0.52934-0.13777,0.79762
	c0.01447,0.03624,0.07249,0.15228,0.17401,0.34802l-22.44144,0.34082c0.26102-0.16679,0.47858-0.39157,0.64534-0.65985
	c0.34077-0.5728,0.39153-1.24713,0.13051-1.85622c-0.26828-0.64534-0.70331-1.20363-1.25439-1.63145
	c0.02899-0.33351-0.01451-0.68158-0.15228-1.00063c-0.31904-0.73955-0.82661-1.35591-1.47916-1.78368
	c0.09426-0.39883,0.05076-0.82661-0.11604-1.21814c-0.12325-0.30457-0.28275-0.58737-0.47128-0.84113h27.77807
	c0.07249,0.54381,0.35528,1.18915,1.18189,1.62418c-0.14503,0.26828-0.2393,0.5656-0.29005,0.87012
	C65.59079,133.92085,65.63429,134.37041,65.77927,134.77644z M23.84028,129.70084l-0.05802-0.58006
	c-0.14503-1.36316,0.55107-2.6683,1.71845-3.33537l0.58732,1.06586c-0.39879,0.03625-0.6888,0.37706-0.65981,0.77585
	c0.02899,0.38431,0.34803,0.67432,0.72509,0.67432h0.05076l0.64534-0.05075l0.25376,0.47131
	c0.50031,0.91362,1.29789,1.5952,2.23328,1.95775l-3.06715,0.24651c-0.18127,0.01451-0.36254,0.00726-0.54382-0.01447
	c-0.22477-0.02904-0.44229-0.09427-0.65255-0.17406l-0.00726-0.00722c-0.10878-0.05077-0.21026-0.10153-0.31178-0.15955
	C24.3841,130.36795,24.07232,130.06339,23.84028,129.70084z M26.27656,133.5873H26.2693
	c-0.50031-0.24651-0.8991-0.62357-1.15286-1.08037l-0.14503-0.26828v-0.00726c0.08701,0.02904,0.17402,0.05077,0.26102,0.06528
	c0.26828,0.05803,0.54382,0.08701,0.82661,0.08701c0.10878,0,0.21026-0.00725,0.31904-0.01451l8.01945-0.63083
	c0.1595-0.01447,0.30452-0.0435,0.44955-0.09425c0.05802-0.01448,0.10878-0.03625,0.16676-0.05798
	c0.05802-0.02902,0.11604-0.05077,0.17406-0.08701c0.07249-0.03629,0.13772-0.07979,0.203-0.12329
	c0.31904,0.26828,0.5728,0.60909,0.7396,1.00787c0.07975,0.18127,0.05798,0.38432-0.05076,0.54382v0.00725
	c-0.00726,0.00726-0.00726,0.01453-0.01452,0.01453c-0.07249,0.10873-0.203,0.23924-0.43503,0.26102l-8.0122,0.62357
	C27.13942,133.87009,26.68987,133.79034,26.27656,133.5873z M27.63247,136.46591c-0.38427-0.23203-0.71057-0.56558-0.92809-0.95712
	l-0.15228-0.27553c0-0.01453-0.00726-0.02173-0.01452-0.02899c0.07254,0.01447,0.14503,0.01447,0.2103,0.02899
	c0.08701,0.01451,0.18127,0.02902,0.26828,0.03624c0.09426,0.00726,0.18127,0.01451,0.27554,0.01451
	c0.0435,0,0.07975,0.00726,0.12325,0.00726c0.10878,0,0.21026,0,0.31178-0.00726l8.01946-0.63081
	c0.09426-0.00726,0.18853-0.02177,0.28279-0.0435c0.07249-0.01453,0.13777-0.03625,0.203-0.05803
	c0.04355-0.01447,0.08705-0.02898,0.13056-0.05075c0.05797-0.02173,0.11599-0.0435,0.16676-0.07976
	c0.02898-0.01451,0.05802-0.02898,0.07975-0.0435c0.06528-0.03624,0.13051-0.07974,0.19579-0.12325
	c0.39879,0.28279,0.71783,0.67432,0.92087,1.13838c0.05798,0.14499,0.05798,0.29727-0.00726,0.43504
	c0,0.00725,0,0.01451-0.00726,0.02177c-0.08701,0.21025-0.27554,0.34802-0.50031,0.36975l-8.01946,0.63083
	c-0.07253,0.00725-0.14503,0.00725-0.22478,0.00725c-0.10878,0-0.22478-0.00725-0.3263-0.02898
	c-0.00726,0.00725-0.00726,0.00725-0.01452,0c-0.00726,0.00725-0.00726,0.00725-0.01447,0
	c-0.10152-0.01453-0.20304-0.02899-0.30457-0.06528c-0.02173,0-0.0435-0.00722-0.06523-0.02173
	c-0.10152-0.02177-0.19579-0.05803-0.29005-0.10153C27.84278,136.58916,27.73399,136.53119,27.63247,136.46591z M30.60535,139.47504
	c-0.97889,0.08701-1.92875-0.4133-2.43633-1.24716c0.14503,0.02898,0.29731,0.05075,0.44234,0.06528
	c0.12325,0.01447,0.25376,0.02173,0.37702,0.02173c0.10878,0,0.21756-0.00726,0.3263-0.01453l8.01945-0.63803
	c0.27554-0.02177,0.53656-0.10152,0.77585-0.22478c0.0435-0.02902,0.08701-0.05077,0.13051-0.07979
	c0.08701-0.05077,0.17401-0.116,0.25381-0.18854c0.01447,0,0.02173-0.01447,0.03624-0.02898
	c0.25377,0.24654,0.46407,0.54381,0.60179,0.8701c0.07254,0.18127,0.05802,0.37706-0.03625,0.54382
	c-0.10148,0.16675-0.27554,0.27553-0.47128,0.29001L30.60535,139.47504z M1.47859,248.53531
	c0.07979-0.65981,0.37706-1.71844,1.33418-2.80608c1.45743-1.64597,4.7783-3.63995,12.33373-3.77046
	c0.1595-0.00726,0.31178-0.00726,0.47128-0.00726c8.39652,0,16.41597,3.85022,20.15019,5.93846L1.47859,248.53531z
	 M105.73883,168.71049l-57.23834,0.08705c-0.1668,0-0.3263,0.05798-0.45681,0.1595l-6.17775-5.61217
	c-0.29726-0.26828-0.75407-0.24655-1.02235,0.05077c-0.26828,0.29726-0.24655,0.75407,0.05076,1.02235l6.88107,6.25024
	l0.19574,76.9897l-9.45512,0.18127c-1.71119-1.10936-11.81165-7.33788-22.88374-7.33788c-0.17401,0-0.34077,0-0.50757,0.00725
	c-0.05797,0-0.11599,0-0.16676,0.00726l0.07249-2.71182c0.02903-1.26889,0.56559-2.45079,1.49368-3.32091
	c0.92087-0.85559,2.1245-1.30515,3.37893-1.26164h0.00726c0,0,0.01447,0,0.02899,0
	c0.53656,0.05801,8.43276,0.91362,17.85889,7.45387c0.12325,0.08705,0.26828,0.13055,0.4133,0.13055
	c0.22477,0,0.44955-0.10878,0.59458-0.31183c0.22477-0.32625,0.14498-0.7758-0.18127-1.00784
	c-8.55606-5.9312-15.75616-7.33066-17.93142-7.63518l0.02903-71.92136c0.00726-10.04243,8.17896-18.33742,18.22143-18.49696
	l24.05837-0.36975c1.87069,2.77704,6.58376,8.36021,16.83649,13.6171c0.44955,0.23204,0.87011,0.44955,1.3124,0.6526
	l-38.26279,0.13776l-2.35653-4.7856c-0.18127-0.35529-0.61635-0.50757-0.97163-0.32629
	c-0.36255,0.17406-0.50757,0.6091-0.33356,0.97163l2.6176,5.30038v0.03625c0.07249,2.052-1.39941,3.83572-3.42243,4.16199
	c-0.34803,0.05075-0.60905,0.35533-0.60905,0.71062l0.13777,73.23375c0,0.39879,0.32625,0.72508,0.72509,0.72508
	c0.39879,0,0.72509-0.32629,0.72509-0.72508l-0.13777-72.64644c1.69668-0.47858,3.03812-1.72571,3.65442-3.32091l3.16137,6.40253
	c0.12325,0.25377,0.38432,0.40605,0.6526,0.40605c0.10874,0,0.21752-0.02177,0.31904-0.07254
	c0.35528-0.18127,0.50757-0.6163,0.3263-0.97159l-3.77772-7.65692l40.59034-0.14502c0.1233,0,0.23203-0.02899,0.33356-0.08701
	c0.00726,0,0.00726,0,0.00726,0c4.11123,1.42839,7.94692,1.90698,11.23159,1.90698c4.72032,0,8.30951-0.9789,9.9772-1.54445
	V168.71049z M105.7533,155.49219c-2.255,0.80482-13.13131,4.104-25.24747-2.10274
	c-10.02796-5.13362-14.61052-10.6443-16.33623-13.21835c-0.10152-0.14503-0.18853-0.28279-0.26828-0.40605
	c-0.17402-0.26828-0.30452-0.48579-0.39879-0.65981l2.98735-3.13239c0.01447-0.01451,0.02899-0.02902,0.02899-0.0435
	c0.29731,0.27554,0.65985,0.49306,1.0659,0.6163c-0.0798,0.18127-0.13052,0.37706-0.15955,0.57286
	c-0.21751,1.43565,0.71783,2.81329,2.13902,3.13232l8.20798,1.83449c0.63808,0.14503,1.27616,0.21027,1.91424,0.21027
	c1.60967,0,3.19762-0.44955,4.60429-1.32687l6.38802-4.0025l36.86343-5.84419l0.97884,8.55602
	c-1.76196-0.60184-3.63269-0.91362-5.55414-0.91362C113.63499,138.76442,106.01437,146.2256,105.7533,155.49219z M107.189,155.99976
	c0-8.70105,7.07686-15.78516,15.7779-15.78516c4.21275,0,8.17169,1.64597,11.15904,4.62605
	c2.98015,2.9801,4.6188,6.94635,4.6188,11.1591v74.85068c-1.46465-1.12387-3.17589-1.90698-5.03932-2.29851
	c-6.70705-1.39941-12.73251-0.20305-17.90965,3.55293c-0.31904,0.23926-0.39158,0.6888-0.15955,1.01511
	c0.2393,0.32629,0.68884,0.39879,1.01514,0.15953c4.82906-3.50943,10.47025-4.62605,16.75674-3.30638
	c2.98009,0.62357,5.51068,2.38551,7.12035,4.97408c1.32693,2.13176,1.87801,4.58981,1.58795,7.04057
	c-0.63083-0.63083-1.37042-1.24713-2.23328-1.84171c-0.02174-0.01453-0.05077-0.02899-0.07249-0.0435
	c-0.02899-0.02899-1.26164-0.79033-1.47195-0.89911c-0.1595-0.09427-1.63144-0.81209-1.74017-0.84834
	c-0.21031-0.10152-1.39941-0.55832-1.40668-0.55107c-0.23203-0.08701-1.13838-0.37706-1.35591-0.43507
	c-0.13051-0.03624-0.90636-0.24651-1.16742-0.30452c-0.10147-0.02899-0.34077-0.08701-0.34802-0.07976
	c-0.03625-0.01451-0.21027-0.05075-0.26102-0.05801c-0.27554-0.06523-0.55109-0.12326-0.83388-0.17401
	c-5.48165-1.01514-11.60864,0.65259-17.7066,4.84357c-0.28279,0.19579-1.89972,1.37769-2.38551,1.76921
	c-0.02904,0.01453-0.05077,0.03625-0.0798,0.05803c-0.45676,0.36253-0.88458,0.71782-1.28337,1.05859
	c-1.0659,0.92087-1.93602,1.75475-2.58131,2.40729V155.99976z M108.13887,248.00601
	c0.13051-0.13777,1.89972-1.81271,2.05922-1.95049c0.08701-0.07979,1.57347-1.33418,1.79099-1.50093
	c0.21752-0.17401,2.45805-1.81998,2.87132-2.09552c0.18853-0.12325,0.38432-0.25375,0.58011-0.37706
	c1.05859-0.67432,2.19699-1.31961,3.3934-1.88521c0.34077-0.16675,2.63932-1.10214,2.84232-1.16737
	c0.40605-0.14502,2.34202-0.66711,2.51608-0.69611c0.21751-0.05075,2.19699-0.34802,2.371-0.35529
	c0.00726-0.00725,0.02177-0.00725,0.03625-0.00725c0.10878-0.00726,2.14627-0.05803,2.87135,0.00725
	c0.49306,0.04352,0.98611,0.1088,1.48642,0.203c0.79762,0.14503,1.56622,0.32631,2.30577,0.52934
	c0.36981,0.10153,2.15353,0.71783,2.24054,0.75407c0.03625,0.01453,1.58794,0.70337,1.81998,0.83388
	c0.203,0.10152,1.48642,0.8701,1.68221,1.00787h0.00722c0.01451,0.01448,0.03629,0.02173,0.05077,0.03625
	c1.37767,0.94986,2.41455,1.99399,3.1904,2.99461c1.21088,1.5589,1.78372,3.02359,2.04474,3.90096L108.13887,248.00601z
	 M41.5032,114.08079c-1.04337,0-2.10728-0.67552-2.65499-1.79785c-0.34166-0.70101-0.43654-1.47637-0.26766-2.18375
	c0.17844-0.74916,0.64897-1.35741,1.29015-1.67039c0.64082-0.31298,1.40945-0.30802,2.10976,0.01203
	c0.66171,0.30306,1.21402,0.85538,1.55568,1.55568c0.72827,1.49479,0.26978,3.22324-1.02213,3.85344
	C42.19254,114.00644,41.84875,114.08079,41.5032,114.08079z M40.89071,109.64671c-0.13666,0-0.26659,0.02832-0.38449,0.08568
	c0,0-0.00035,0-0.00035,0.00071c-0.2535,0.12321-0.43619,0.37245-0.51479,0.70242c-0.08993,0.37671-0.03115,0.81785,0.16074,1.21155
	c0.3721,0.76262,1.16269,1.17473,1.72668,0.89928c0.56329-0.27474,0.7258-1.15136,0.35405-1.91397
	c-0.19189-0.3937-0.50381-0.71163-0.85537-0.87308C41.21218,109.68424,41.0472,109.64671,40.89071,109.64671z M40.18828,109.08095
	h0.00708H40.18828z M77.72533,127.09269c0.3505-0.19331,0.47796-0.63445,0.28429-0.98495l-1.31139-2.37565
	c-0.19402-0.35051-0.63516-0.47938-0.98531-0.28394c-0.3505,0.19331-0.47796,0.63445-0.28429,0.98495l1.31139,2.37565
	c0.13206,0.23933,0.37989,0.37458,0.63551,0.37458C77.49413,127.18333,77.61415,127.1543,77.72533,127.09269z M74.7177,121.64392
	c0.35051-0.19402,0.47797-0.63516,0.2843-0.98566L63.56241,99.93098c-0.47903-0.86813-1.39282-1.4084-2.38556-1.40911
	l-45.61851-0.01911h-0.00035c-0.40043,0-0.72509,0.3243-0.72509,0.72508c0,0.40007,0.32431,0.72509,0.72473,0.72509
	l45.61815,0.01912c0.46486,0.0007,0.89255,0.25349,1.11702,0.65994l11.43959,20.72728
	c0.13206,0.23933,0.37989,0.37458,0.63551,0.37458C74.48615,121.73385,74.60653,121.70482,74.7177,121.64392z"/>
</svg>
